# 3ds Max Wavefront OBJ Exporter v0.99 - (c)2007 guruware
# File Created: 02.11.2024 20:20:32

mtllib akuPluma3.mtl

#
# object Object003
#

v  2.3085 6.2821 -0.3769
v  2.0766 5.9951 -0.0510
v  2.1922 6.4947 -0.4064
v  2.0447 6.4153 -0.2462
v  2.3552 5.9102 -0.2187
v  1.7834 6.1007 -0.0558
v  2.3734 5.2719 0.0180
v  1.8760 5.3993 0.3348
v  1.3891 5.5550 0.2412
v  0.9138 4.9066 0.5578
v  1.6562 4.7479 0.7003
v  2.3604 4.5249 0.2181
v  1.3458 3.8893 0.9781
v  0.5370 4.2725 0.7740
v  2.2462 3.5380 0.4221
v  0.9554 3.0244 1.1153
v  2.0092 2.7022 0.4744
v  0.1109 3.2741 1.0013
v  1.5907 1.9025 0.4509
v  0.5953 2.0267 0.9959
v  -0.1160 2.1108 0.9947
v  0.9993 1.1463 0.2905
v  0.3296 1.1468 0.7690
v  -0.2206 1.2165 0.8807
v  0.1191 0.4742 0.3524
v  0.4447 0.3786 0.0461
v  -0.2690 0.4938 0.5085
v  0.2574 0.0783 -0.0450
v  0.0337 0.0769 -0.0032
v  -0.2284 0.0677 0.0205
v  2.0670 6.4823 -0.1723
v  2.1637 6.0983 0.1013
v  2.2129 6.5915 -0.3945
v  1.8071 6.1599 0.0450
v  2.3534 6.3231 -0.3001
v  1.4166 5.6092 0.3421
v  2.3932 5.9593 -0.1314
v  1.9330 5.5111 0.4655
v  0.9222 4.9525 0.6410
v  2.4260 5.3158 0.1094
v  1.6840 4.7698 0.8259
v  0.4946 4.2446 0.9157
v  2.4310 4.5199 0.3537
v  1.4592 4.0575 1.0775
v  2.3130 3.5103 0.5448
v  0.0478 3.2797 1.0966
v  1.0927 3.0588 1.2861
v  2.0764 2.6821 0.6045
v  0.7592 1.9531 1.2698
v  1.6753 1.8693 0.5918
v  1.0926 1.1131 0.4476
v  -0.1751 2.1187 1.1107
v  0.4775 1.0969 1.0980
v  -0.2827 1.1912 0.9967
v  0.1619 0.3930 0.5480
v  -0.3273 0.4547 0.6021
v  -0.2684 0.0794 0.0683
v  0.4978 0.3662 0.1705
v  0.0564 0.1224 0.1462
v  0.2910 0.1120 0.0620
# 60 vertices

vn -0.5513 -0.3913 -0.7368
vn -0.4537 -0.3929 -0.7998
vn -0.5613 -0.3896 -0.7302
vn -0.3695 -0.4146 -0.8316
vn -0.5591 -0.3431 -0.7548
vn -0.0973 -0.4709 -0.8768
vn -0.5717 -0.2644 -0.7767
vn -0.2087 -0.4344 -0.8762
vn 0.0195 -0.4697 -0.8826
vn 0.0643 -0.4150 -0.9075
vn -0.3373 -0.2892 -0.8959
vn -0.2666 -0.3460 -0.8996
vn -0.5759 -0.1205 -0.8086
vn -0.2351 -0.1771 -0.9557
vn -0.4302 -0.2230 -0.8747
vn 0.0886 -0.2737 -0.9577
vn -0.5186 0.0229 -0.8547
vn -0.2331 0.0450 -0.9714
vn -0.4726 0.1730 -0.8641
vn 0.0716 -0.0595 -0.9957
vn -0.4228 0.3301 -0.8440
vn -0.1327 0.2172 -0.9671
vn -0.2071 0.2460 -0.9469
vn -0.0493 0.1316 -0.9901
vn -0.4721 0.4910 -0.7321
vn -0.2663 0.3895 -0.8817
vn -0.2780 0.2792 -0.9191
vn -0.2016 0.3890 -0.8989
vn -0.3271 0.5808 -0.7454
vn -0.4869 0.5404 -0.6862
vn -0.2182 0.6344 -0.7416
vn -0.3254 0.6109 -0.7217
vn -0.1574 0.7019 -0.6946
vn -0.0856 0.7470 -0.6592
vn 0.2574 0.6029 0.7552
vn 0.4244 0.4839 0.7653
vn 0.5694 0.5539 0.6074
vn -0.8123 0.5327 -0.2375
vn -0.8053 0.4027 -0.4351
vn -0.8193 0.4813 -0.3117
vn -0.8239 0.5431 -0.1619
vn -0.0400 0.5388 0.8415
vn 0.2845 0.5281 0.8001
vn -0.7702 0.2370 -0.5921
vn 0.6941 0.4365 0.5725
vn 0.5407 -0.0127 -0.8411
vn 0.7494 0.0662 -0.6588
vn 0.6544 0.1568 -0.7397
vn -0.8235 0.5559 -0.1130
vn -0.0865 0.5121 0.8546
vn -0.8293 0.5460 -0.1190
vn 0.8698 0.0543 -0.4905
vn 0.6689 0.3914 0.6319
vn 0.7627 0.3002 0.5729
vn 0.9140 -0.0820 -0.3973
vn -0.8244 0.5608 -0.0761
vn -0.8494 0.5041 -0.1562
vn -0.1041 0.4992 0.8602
vn 0.2042 0.5793 0.7891
vn -0.1121 0.4553 0.8833
vn -0.8488 0.4944 -0.1874
vn 0.9151 -0.0900 -0.3930
vn 0.6494 0.2231 0.7270
vn 0.8957 -0.1241 -0.4270
vn 0.4937 0.4618 0.7369
vn 0.6234 0.1915 0.7581
vn 0.4383 0.2312 0.8686
vn 0.1767 0.3417 0.9231
vn -0.8829 0.4348 -0.1775
vn -0.1074 0.3382 0.9349
vn 0.2595 0.3164 0.9124
vn 0.5683 0.1491 0.8092
vn 0.2359 0.1829 0.9544
vn 0.8857 -0.1367 -0.4437
vn 0.8767 -0.1554 -0.4553
vn 0.8626 -0.1751 -0.4746
vn 0.8442 -0.2179 -0.4897
vn 0.5459 -0.0067 0.8378
vn 0.8339 -0.2439 -0.4951
vn -0.1432 0.1408 0.9796
vn 0.2769 0.0013 0.9609
vn 0.2076 0.0469 0.9771
vn 0.8028 -0.3258 -0.4993
vn 0.5394 -0.1834 0.8218
vn 0.8167 -0.3295 -0.4737
vn 0.3723 -0.0633 0.9260
vn 0.2719 -0.2167 0.9376
vn -0.0009 -0.0585 0.9983
vn 0.7469 -0.4167 -0.5182
vn 0.5215 -0.3994 0.7540
vn 0.5667 -0.3330 0.7536
vn 0.7350 -0.4127 -0.5381
vn 0.7487 -0.4405 -0.4953
vn 0.7346 -0.4275 -0.5268
vn 0.5770 -0.5449 0.6084
vn -0.8791 0.3614 -0.3108
vn -0.8642 0.2353 -0.4447
vn -0.1651 -0.0650 0.9841
vn 0.6312 -0.5100 0.5843
vn -0.1745 -0.2709 0.9466
vn -0.8130 0.1913 -0.5500
vn -0.8571 0.1621 -0.4889
vn -0.8781 0.1599 -0.4509
vn -0.8753 0.2164 -0.4324
vn -0.0972 -0.3881 0.9165
vn -0.8798 0.2143 -0.4244
vn 0.2647 -0.7421 0.6158
vn 0.0447 -0.7290 0.6831
vn -0.7864 0.4171 -0.4556
vn -0.0014 -0.6652 0.7467
vn 0.2020 -0.7267 0.6566
vn -0.8589 0.3163 -0.4028
vn -0.6776 0.5540 -0.4837
vn 0.0132 -0.9024 0.4308
vn 0.4205 -0.6797 0.6010
vn 0.7822 -0.4458 -0.4352
vn 0.1443 -0.8774 0.4575
vn 0.1699 -0.8022 0.5723
vn 0.8238 -0.4827 -0.2974
# 119 vertex normals

vt 0.6089 0.4927 0.0000
vt 0.6152 0.4695 0.0000
vt 0.6191 0.4988 0.0000
vt 0.6255 0.4890 0.0000
vt 0.5991 0.4763 0.0000
vt 0.6318 0.4675 0.0000
vt 0.5840 0.4475 0.0000
vt 0.6128 0.4346 0.0000
vt 0.6401 0.4319 0.0000
vt 0.6494 0.3889 0.0000
vt 0.6094 0.3982 0.0000
vt 0.5674 0.4143 0.0000
vt 0.6050 0.3538 0.0000
vt 0.6558 0.3491 0.0000
vt 0.5483 0.3687 0.0000
vt 0.6030 0.3086 0.0000
vt 0.5381 0.3274 0.0000
vt 0.6509 0.2949 0.0000
vt 0.5371 0.2822 0.0000
vt 0.5942 0.2593 0.0000
vt 0.6309 0.2411 0.0000
vt 0.5430 0.2327 0.0000
vt 0.5825 0.2162 0.0000
vt 0.6094 0.2026 0.0000
vt 0.5679 0.1804 0.0000
vt 0.5444 0.1836 0.0000
vt 0.5879 0.1704 0.0000
vt 0.5439 0.1655 0.0000
vt 0.5542 0.1587 0.0000
vt 0.5649 0.1495 0.0000
vt 0.7710 0.8359 0.0000
vt 0.7485 0.8354 0.0000
vt 0.7754 0.8271 0.0000
vt 0.7754 0.8379 0.0000
vt 0.7563 0.8525 0.0000
vt 0.7783 0.8257 0.0000
vt 0.7671 0.8198 0.0000
vt 0.7603 0.8569 0.0000
vt 0.7280 0.8770 0.0000
vt 0.7695 0.8159 0.0000
vt 0.7466 0.8179 0.0000
vt 0.7310 0.8818 0.0000
vt 0.6953 0.9102 0.0000
vt 0.7173 0.8511 0.0000
vt 0.6929 0.9058 0.0000
vt 0.7466 0.8125 0.0000
vt 0.7114 0.8184 0.0000
vt 0.6782 0.8672 0.0000
vt 0.6548 0.9287 0.0000
vt 0.6685 0.8213 0.0000
vt 0.6426 0.8804 0.0000
vt 0.7104 0.8130 0.0000
vt 0.6694 0.8140 0.0000
vt 0.6157 0.8218 0.0000
vt 0.6157 0.8291 0.0000
vt 0.6050 0.9517 0.0000
vt 0.5933 0.8994 0.0000
vt 0.5698 0.8340 0.0000
vt 0.5723 0.8408 0.0000
vt 0.5396 0.9160 0.0000
vt 0.5293 0.8604 0.0000
vt 0.5239 0.8540 0.0000
vt 0.4773 0.8813 0.0000
vt 0.4849 0.8867 0.0000
vt 0.6611 0.9326 0.0000
vt 0.5469 0.9644 0.0000
vt 0.4983 0.9292 0.0000
vt 0.6079 0.9565 0.0000
vt 0.5479 0.9707 0.0000
vt 0.4993 0.9736 0.0000
vt 0.4993 0.9668 0.0000
vt 0.4546 0.9409 0.0000
vt 0.4580 0.9653 0.0000
vt 0.4563 0.9707 0.0000
vt 0.4238 0.9639 0.0000
vt 0.4263 0.9619 0.0000
vt 0.4412 0.9189 0.0000
vt 0.4304 0.9448 0.0000
vt 0.4272 0.9316 0.0000
vt 0.4348 0.9160 0.0000
# 80 texture coords

o Object003
g Object003
usemtl acmat_0
s 1
f 1/1/1 2/2/2 3/3/3 
f 3/3/3 2/2/2 4/4/4 
f 1/1/1 5/5/5 2/2/2 
f 2/2/2 6/6/6 4/4/4 
f 5/5/5 7/7/7 2/2/2 
f 2/2/2 8/8/8 6/6/6 
f 7/7/7 8/8/8 2/2/2 
f 8/8/8 9/9/9 6/6/6 
f 9/9/9 8/8/8 10/10/10 
f 8/8/8 7/7/7 11/11/11 
f 8/8/8 11/11/12 10/10/10 
f 7/7/7 12/12/13 11/11/11 
f 10/10/10 11/11/11 13/13/14 
f 11/11/15 12/12/13 13/13/14 
f 14/14/16 10/10/10 13/13/14 
f 12/12/13 15/15/17 13/13/14 
f 13/13/14 15/15/17 16/16/18 
f 14/14/16 13/13/14 16/16/18 
f 15/15/17 17/17/19 16/16/18 
f 18/18/20 14/14/16 16/16/18 
f 17/17/19 19/19/21 16/16/18 
f 16/16/18 20/20/22 18/18/20 
f 19/19/21 20/20/23 16/16/18 
f 20/20/23 21/21/24 18/18/20 
f 19/19/21 22/22/25 20/20/23 
f 20/20/23 23/23/26 21/21/24 
f 22/22/25 23/23/26 20/20/27 
f 23/23/26 24/24/28 21/21/24 
f 23/23/26 22/22/25 25/25/29 
f 24/24/28 23/23/26 25/25/29 
f 22/22/25 26/26/30 25/25/29 
f 27/27/31 24/24/28 25/25/29 
f 25/25/29 26/26/30 28/28/32 
f 29/29/33 25/25/29 28/28/32 
f 27/27/31 25/25/29 29/29/33 
f 30/30/34 27/27/31 29/29/33 
f 31/31/35 32/32/36 33/33/37 
f 31/31/38 33/33/39 4/34/40 
f 31/31/38 4/34/40 34/35/41 
f 31/31/35 34/35/42 32/32/43 
f 33/33/39 3/36/44 4/34/40 
f 35/37/45 33/33/37 32/32/36 
f 33/33/46 35/37/47 3/36/48 
f 4/34/40 6/38/49 34/35/41 
f 34/35/42 36/39/50 32/32/43 
f 34/35/41 6/38/49 36/39/51 
f 35/37/47 1/40/52 3/36/48 
f 35/37/45 32/32/53 37/41/54 
f 35/37/47 37/41/55 1/40/52 
f 6/38/49 9/42/56 36/39/51 
f 9/42/56 10/43/57 36/39/51 
f 36/39/50 38/44/58 32/32/59 
f 38/44/58 36/39/50 39/45/60 
f 10/43/57 39/45/61 36/39/51 
f 37/41/55 5/46/62 1/40/52 
f 37/41/54 32/32/53 40/47/63 
f 37/41/55 40/47/64 5/46/62 
f 32/32/65 38/44/66 40/47/63 
f 38/44/66 41/48/67 40/47/63 
f 41/48/68 38/44/58 39/45/60 
f 39/45/61 10/43/57 42/49/69 
f 39/45/60 42/49/70 41/48/68 
f 41/48/71 43/50/72 40/47/63 
f 42/49/70 44/51/73 41/48/71 
f 41/48/71 44/51/73 43/50/72 
f 40/47/64 7/52/74 5/46/62 
f 7/52/74 40/47/64 12/53/75 
f 40/47/64 43/50/76 12/53/75 
f 12/53/75 43/50/76 15/54/77 
f 44/51/73 45/55/78 43/50/72 
f 43/50/76 45/55/79 15/54/77 
f 42/49/70 46/56/80 44/51/73 
f 44/51/73 47/57/81 45/55/78 
f 46/56/80 47/57/82 44/51/73 
f 15/54/77 45/55/79 17/58/83 
f 47/57/81 48/59/84 45/55/78 
f 45/55/79 48/59/85 17/58/83 
f 48/59/84 47/57/86 49/60/87 
f 47/57/81 46/56/80 49/60/88 
f 17/58/83 48/59/85 50/61/89 
f 50/61/90 48/59/84 49/60/91 
f 19/62/92 17/58/83 50/61/89 
f 22/63/93 19/62/92 50/61/89 
f 51/64/94 22/63/93 50/61/89 
f 50/61/90 49/60/91 51/64/95 
f 10/43/57 14/65/96 42/49/69 
f 42/49/69 14/65/96 46/56/97 
f 46/56/80 52/66/98 49/60/88 
f 49/60/91 53/67/99 51/64/95 
f 49/60/88 52/66/98 53/67/100 
f 14/65/96 18/68/101 46/56/97 
f 18/68/101 21/69/102 46/56/97 
f 21/69/102 52/66/103 46/56/97 
f 52/66/103 21/69/102 24/70/104 
f 52/66/98 54/71/105 53/67/100 
f 54/71/106 52/66/103 24/70/104 
f 51/64/95 53/67/99 55/72/107 
f 53/67/100 54/71/105 55/72/108 
f 54/71/106 24/70/104 56/73/109 
f 54/71/105 56/73/110 55/72/111 
f 24/70/104 27/74/112 56/73/109 
f 56/73/109 27/74/112 30/75/113 
f 55/72/111 56/73/110 57/76/114 
f 58/77/115 51/64/95 55/72/107 
f 51/64/94 58/77/116 22/63/93 
f 59/78/117 55/72/111 57/76/114 
f 58/77/115 55/72/111 59/78/117 
f 60/79/118 58/77/115 59/78/117 
f 58/77/116 26/80/119 22/63/93 
# 109 faces

