# Blender 3.6.0
# www.blender.org
mtllib dado4.mtl
o obj3
v -11.531348 -11.606797 -19.972883
v 23.062702 -11.606795 0.000004
v -11.531352 -11.606793 19.972889
v -12.514200 -10.811414 -20.161577
v -12.514203 -10.811410 20.161579
v -0.888976 20.189188 0.000002
v -11.203339 -10.811410 20.918406
v 23.717539 -10.811412 0.756833
v 0.444488 20.189188 0.769878
v 23.717539 -10.811412 -0.756824
v -11.203334 -10.811414 -20.918406
v 0.444488 20.189188 -0.769874
v -11.203334 -10.811414 -20.918406
v -12.514200 -10.811414 -20.161577
v -12.514203 -10.811410 20.161579
v -11.203339 -10.811410 20.918406
v 23.717539 -10.811412 0.756833
v 23.717539 -10.811412 -0.756824
v 0.444488 20.189188 -0.769874
v -11.203334 -10.811414 -20.918406
vn -0.0000 -0.0000 -1.0000
vn -0.0001 -0.0000 -1.0000
vn -0.9363 -0.0000 0.3511
vn 0.4681 -0.8109 0.3511
vn 0.4682 -0.8109 0.3511
vn 0.4682 0.8109 0.3511
vn 0.4681 0.8109 0.3511
vn -0.3860 0.6686 -0.6356
vn -0.3860 -0.6686 -0.6356
vn 0.7720 -0.0000 -0.6356
vn -0.0000 -0.0000 1.0000
vn 0.0001 -0.0000 1.0000
vn -0.3999 0.6926 0.6004
vn -0.3998 0.6926 0.6004
vn 0.3146 0.5448 -0.7773
vn 0.3145 0.5448 -0.7773
vn 0.3145 0.5448 -0.7774
vn -0.6291 -0.0000 -0.7773
vn -0.6291 -0.0000 -0.7774
vn -0.6290 -0.0000 -0.7774
vn -0.3999 -0.6926 0.6004
vn -0.3937 -0.6928 0.6042
vn -0.3998 -0.6926 0.6004
vn 0.3145 -0.5448 -0.7773
vn 0.3145 -0.5448 -0.7774
vn 0.3146 -0.5448 -0.7773
vn 0.7997 -0.0000 0.6004
vn 0.7998 -0.0001 0.6003
vt 0.387500 0.944860
vt 0.725000 0.750000
vt 0.387500 0.555140
vt 0.261500 0.488360
vt 0.412920 0.488360
vt 0.488440 0.034690
vt 0.424290 0.488360
vt 0.575710 0.488360
vt 0.500000 0.034690
vt 0.587080 0.488360
vt 0.738500 0.488360
vt 0.511560 0.034690
vt 0.390700 0.954080
vt 0.377910 0.946700
vt 0.377910 0.553300
vt 0.390700 0.545920
vt 0.731390 0.742620
vt 0.731390 0.757380
vt 0.486560 0.031630
vt 0.259670 0.485350
s 0
usemtl mat3
f 1/1/1 2/2/2 3/3/1
f 4/4/3 5/5/3 6/6/3
f 7/7/4 8/8/4 9/9/5
f 10/10/6 11/11/6 12/12/7
f 13/13/8 1/1/8 14/14/8
f 15/15/9 3/3/9 16/16/9
f 17/17/10 2/2/10 18/18/10
f 19/19/11 6/6/12 9/9/11
f 20/20/13 4/4/13 6/6/14
f 20/20/13 6/6/13 19/19/14
f 1/1/15 13/13/16 18/18/17
f 1/1/17 18/18/15 2/2/15
f 14/14/18 1/1/18 3/3/19
f 14/14/19 3/3/19 15/15/20
f 5/5/21 7/7/21 9/9/22
f 5/5/23 9/9/23 6/6/23
f 16/16/24 3/3/25 2/2/25
f 16/16/25 2/2/26 17/17/24
f 8/8/27 10/10/27 12/12/28
f 8/8/27 12/12/27 9/9/27
