# 3ds Max Wavefront OBJ Exporter v0.99 - (c)2007 guruware
# File Created: 02.11.2024 17:07:24

mtllib pieizq.mtl

#
# object pizq
#

v  -0.2372 -1.1604 -0.0135
v  -0.3520 -1.0525 0.0296
v  -0.1803 -1.1604 -0.3241
v  -0.2982 -1.0525 0.4245
v  -0.1683 -1.1604 0.3689
v  -0.1885 -1.0525 0.7988
v  -0.0486 -1.1604 0.7462
v  -0.0405 -1.0525 1.1685
v  0.1022 -1.1604 1.1149
v  0.2084 -1.0525 1.6054
v  0.3451 -1.1604 1.5541
v  0.5018 -1.0525 1.9065
v  0.5886 -1.1604 1.7984
v  0.9055 -1.0525 1.9816
v  0.9260 -1.1604 1.8508
v  1.2810 -1.0525 1.9008
v  1.2364 -1.1604 1.7819
v  1.5955 -1.0525 1.7226
v  1.5019 -1.1604 1.6346
v  1.8552 -1.0525 1.3986
v  1.7242 -1.1604 1.3722
v  1.9123 -1.0525 0.9659
v  1.7756 -1.1604 1.0172
v  1.7892 -1.0525 0.4818
v  1.6430 -1.1604 0.5367
v  1.6393 -1.0525 0.1128
v  1.4922 -1.1604 0.1679
v  1.4533 -1.0525 -0.2329
v  1.3065 -1.1604 -0.1846
v  1.1754 -1.0525 -0.5436
v  1.0566 -1.1604 -0.4991
v  0.8479 -1.0525 -0.7695
v  0.7987 -1.1604 -0.6915
v  0.5503 -1.0525 -0.8104
v  0.5528 -1.1604 -0.6905
v  0.2758 -1.0525 -0.7693
v  0.3241 -1.1604 -0.6407
v  -0.0337 -1.0525 -0.5912
v  0.0609 -1.1604 -0.5059
v  -0.2998 -1.0525 -0.3388
v  -0.4412 -0.8303 0.0631
v  -0.3976 -0.8303 0.4738
v  -0.2969 -0.8303 0.8412
v  -0.1514 -0.8303 1.2101
v  0.1023 -0.8303 1.6452
v  0.4334 -0.8303 1.9792
v  0.8912 -0.8303 2.0858
v  1.3180 -0.8303 1.9994
v  1.6692 -0.8303 1.7938
v  1.9531 -0.8303 1.4088
v  2.0185 -0.8303 0.9261
v  1.9029 -0.8303 0.4391
v  1.7544 -0.8303 0.0713
v  1.5706 -0.8303 -0.2648
v  1.2677 -0.8303 -0.5783
v  0.8915 -0.8303 -0.8145
v  0.5538 -0.8303 -0.8887
v  0.2495 -0.8303 -0.8394
v  -0.1019 -0.8303 -0.6426
v  -0.3770 -0.8303 -0.3384
v  -0.4587 -0.4815 0.0696
v  -0.4301 -0.4815 0.4895
v  -0.3321 -0.4815 0.8555
v  -0.1875 -0.4815 1.2236
v  0.0670 -0.4815 1.6562
v  0.4017 -0.4815 1.9699
v  0.8693 -0.4815 2.0647
v  1.3082 -0.4815 1.9733
v  1.6730 -0.4815 1.7631
v  1.9730 -0.4815 1.3802
v  2.0522 -0.4815 0.9111
v  1.9399 -0.4815 0.4252
v  1.7921 -0.4815 0.0583
v  1.6086 -0.4815 -0.2756
v  1.2870 -0.4815 -0.5856
v  0.8877 -0.4815 -0.8101
v  0.5528 -0.4815 -0.8727
v  0.2504 -0.4815 -0.8347
v  -0.0894 -0.4815 -0.6316
v  -0.3686 -0.4815 -0.3386
v  -0.3657 -0.1769 0.0345
v  -0.3353 -0.1643 0.4540
v  -0.2464 -0.1502 0.8226
v  -0.1145 -0.1375 1.1673
v  0.1237 -0.1227 1.5669
v  0.4672 -0.1248 1.8241
v  0.8502 -0.1278 1.8822
v  1.2446 -0.1288 1.8039
v  1.5801 -0.1278 1.6083
v  1.8384 -0.1248 1.3095
v  1.9421 -0.1227 0.8845
v  1.8446 -0.1375 0.4320
v  1.7020 -0.1502 0.0914
v  1.5074 -0.1643 -0.2376
v  1.1940 -0.1769 -0.5508
v  0.8538 -0.1834 -0.7389
v  0.5531 -0.1866 -0.7823
v  0.2825 -0.1880 -0.7479
v  -0.0166 -0.1866 -0.5685
v  -0.2766 -0.1834 -0.3147
v  0.8280 0.0391 -0.6059
v  0.9779 0.1006 -0.4409
v  1.2250 0.1773 -0.1316
v  1.4152 0.2247 0.1990
v  1.5363 0.2303 0.4828
v  1.6423 0.1677 0.8882
v  1.6749 0.0336 1.2959
v  1.4616 0.1138 1.3671
v  1.1319 0.1432 1.5036
v  0.7948 0.1138 1.6174
v  0.5874 0.0336 1.7041
v  0.6458 0.3113 1.1857
v  0.3506 0.1677 1.3730
v  0.4785 0.3773 0.8472
v  0.1404 0.2303 1.0067
v  0.3750 0.3715 0.5894
v  0.0271 0.2247 0.7200
v  0.2577 0.3158 0.2314
v  -0.0746 0.1773 0.3561
v  0.1675 0.2120 -0.1368
v  -0.1334 0.1006 -0.0238
v  -0.1398 0.0391 -0.2427
v  1.2904 0.3113 0.9438
v  1.1785 0.3773 0.5845
v  1.0733 0.3715 0.3273
v  0.9089 0.3158 -0.0130
v  0.7240 0.2120 -0.3456
v  0.5940 0.0093 -0.6490
v  0.3318 0.0069 -0.6166
v  0.0505 0.0093 -0.4450
v  0.9637 0.3319 1.0555
v  0.8338 0.3983 0.7092
v  0.7371 0.3923 0.4535
v  0.6033 0.3356 0.1017
v  0.4699 0.2309 -0.2503
# 135 vertices

vn -0.6632 -0.7481 0.0237
vn -0.8184 -0.5746 -0.0076
vn -0.6373 -0.7117 -0.2956
vn -0.7632 -0.6241 0.1674
vn -0.5837 -0.7975 0.1527
vn -0.7152 -0.6522 0.2512
vn -0.5454 -0.8129 0.2045
vn -0.6767 -0.6566 0.3330
vn -0.5218 -0.8107 0.2657
vn -0.6130 -0.6339 0.4716
vn -0.4715 -0.7915 0.3889
vn -0.3593 -0.6197 0.6978
vn -0.2220 -0.7840 0.5797
vn 0.0218 -0.6107 0.7916
vn 0.0612 -0.7675 0.6382
vn 0.2921 -0.6054 0.7404
vn 0.2621 -0.7589 0.5961
vn 0.5304 -0.5971 0.6018
vn 0.4500 -0.7554 0.4764
vn 0.7348 -0.6045 0.3075
vn 0.6022 -0.7710 0.2074
vn 0.7703 -0.6359 -0.0476
vn 0.5928 -0.8024 -0.0692
vn 0.7075 -0.6656 -0.2376
vn 0.5334 -0.8235 -0.1934
vn 0.6709 -0.6689 -0.3203
vn 0.5123 -0.8213 -0.2512
vn 0.6190 -0.6434 -0.4504
vn 0.4963 -0.7884 -0.3636
vn 0.5415 -0.5588 -0.6281
vn 0.4644 -0.7005 -0.5419
vn 0.3231 -0.4860 -0.8120
vn 0.1909 -0.6849 -0.7031
vn -0.0272 -0.5290 -0.8482
vn -0.0783 -0.7575 -0.6481
vn -0.2830 -0.5725 -0.7695
vn -0.2506 -0.7723 -0.5838
vn -0.5055 -0.5604 -0.6560
vn -0.4120 -0.7106 -0.5703
vn -0.7405 -0.5453 -0.3927
vn -0.9766 -0.2131 -0.0285
vn -0.9470 -0.2638 0.1833
vn -0.9078 -0.2871 0.3059
vn -0.8590 -0.2927 0.4201
vn -0.7593 -0.2701 0.5920
vn -0.4686 -0.2104 0.8580
vn -0.0037 -0.1757 0.9844
vn 0.3538 -0.1793 0.9180
vn 0.6527 -0.1965 0.7317
vn 0.8991 -0.2270 0.3742
vn 0.9617 -0.2699 -0.0487
vn 0.9088 -0.2969 -0.2932
vn 0.8609 -0.3019 -0.4095
vn 0.7680 -0.2816 -0.5752
vn 0.6123 -0.2106 -0.7620
vn 0.3754 -0.1300 -0.9177
vn 0.0199 -0.1350 -0.9906
vn -0.3295 -0.1521 -0.9318
vn -0.6149 -0.1541 -0.7734
vn -0.8808 -0.1619 -0.4449
vn -0.9889 0.1328 -0.0661
vn -0.9811 0.1039 0.1630
vn -0.9476 0.0789 0.3095
vn -0.8969 0.0738 0.4360
vn -0.7665 0.1078 0.6331
vn -0.4523 0.1966 0.8699
vn -0.0077 0.2574 0.9663
vn 0.3395 0.2729 0.9001
vn 0.6270 0.2539 0.7365
vn 0.8950 0.1873 0.4047
vn 0.9940 0.1039 -0.0334
vn 0.9495 0.0799 -0.3035
vn 0.8970 0.0910 -0.4325
vn 0.7918 0.0995 -0.6027
vn 0.5975 0.0989 -0.7957
vn 0.3404 0.1323 -0.9309
vn 0.0354 0.1664 -0.9854
vn -0.3255 0.1644 -0.9311
vn -0.6062 0.1662 -0.7778
vn -0.8694 0.1607 -0.4672
vn -0.8798 0.4654 -0.0972
vn -0.8777 0.4654 0.1143
vn -0.8525 0.4562 0.2551
vn -0.7934 0.4710 0.3856
vn -0.6449 0.5150 0.5647
vn -0.3889 0.5129 0.7653
vn 0.0046 0.6154 0.7882
vn 0.2693 0.6200 0.7369
vn 0.4992 0.5888 0.6357
vn 0.7311 0.5628 0.3857
vn 0.8507 0.5254 0.0153
vn 0.8419 0.4626 -0.2778
vn 0.7838 0.4633 -0.4136
vn 0.6890 0.4787 -0.5441
vn 0.5462 0.4378 -0.7141
vn 0.3285 0.3608 -0.8729
vn 0.0260 0.4430 -0.8962
vn -0.2877 0.4490 -0.8460
vn -0.5408 0.4416 -0.7159
vn -0.7767 0.4504 -0.4403
vn 0.2167 0.6674 -0.7125
vn 0.3721 0.7648 -0.5259
vn 0.4493 0.7900 -0.4172
vn 0.5185 0.8030 -0.2938
vn 0.5599 0.8213 -0.1098
vn 0.5542 0.8204 0.1410
vn 0.5398 0.7554 0.3714
vn 0.3593 0.8309 0.4249
vn 0.1736 0.8535 0.4913
vn 0.0293 0.8561 0.5159
vn -0.2075 0.7803 0.5900
vn -0.0706 0.9403 0.3329
vn -0.3938 0.8176 0.4201
vn -0.1630 0.9745 0.1545
vn -0.5282 0.8059 0.2677
vn -0.2285 0.9735 -0.0028
vn -0.5899 0.7992 0.1159
vn -0.2706 0.9541 -0.1284
vn -0.6077 0.7939 -0.0210
vn -0.3178 0.8993 -0.3006
vn -0.6544 0.7418 -0.1466
vn -0.5651 0.7106 -0.4191
vn 0.2836 0.9390 0.1945
vn 0.2265 0.9740 -0.0040
vn 0.1701 0.9712 -0.1670
vn 0.1224 0.9498 -0.2879
vn 0.0371 0.9041 -0.4257
vn -0.0461 0.7515 -0.6581
vn -0.2055 0.7400 -0.6405
vn -0.4057 0.6985 -0.5895
vn 0.0924 0.9606 0.2623
vn 0.0288 0.9970 0.0725
vn -0.0281 0.9963 -0.0810
vn -0.0695 0.9777 -0.1980
vn -0.1251 0.9203 -0.3708
# 135 vertex normals

vt 0.0726 0.8421 0.0000
vt 0.1275 0.7559 0.0000
vt 0.1660 0.9437 0.0000
vt 0.0895 0.6470 0.0000
vt 0.0324 0.6988 0.0000
vt 0.0771 0.5380 0.0000
vt 0.0206 0.5505 0.0000
vt 0.0809 0.4265 0.0000
vt 0.0273 0.4011 0.0000
vt 0.1150 0.2874 0.0000
vt 0.0693 0.2148 0.0000
vt 0.1875 0.1795 0.0000
vt 0.1511 0.0969 0.0000
vt 0.3385 0.1201 0.0000
vt 0.3223 0.0340 0.0000
vt 0.5016 0.1043 0.0000
vt 0.5035 0.0173 0.0000
vt 0.6549 0.1201 0.0000
vt 0.6763 0.0340 0.0000
vt 0.8082 0.1795 0.0000
vt 0.8491 0.0969 0.0000
vt 0.8964 0.2874 0.0000
vt 0.9486 0.2148 0.0000
vt 0.9200 0.4265 0.0000
vt 0.9743 0.4011 0.0000
vt 0.9154 0.5380 0.0000
vt 0.9676 0.5505 0.0000
vt 0.8927 0.6470 0.0000
vt 0.9388 0.6988 0.0000
vt 0.8279 0.7559 0.0000
vt 0.8678 0.8421 0.0000
vt 0.7304 0.8474 0.0000
vt 0.7678 0.9437 0.0000
vt 0.6169 0.8874 0.0000
vt 0.6351 0.9758 0.0000
vt 0.5004 0.9036 0.0000
vt 0.5018 0.9884 0.0000
vt 0.3491 0.8874 0.0000
vt 0.3328 0.9758 0.0000
vt 0.2040 0.8474 0.0000
vt 0.1838 0.6967 0.0000
vt 0.1498 0.6110 0.0000
vt 0.1384 0.5297 0.0000
vt 0.1405 0.4447 0.0000
vt 0.1683 0.3383 0.0000
vt 0.2315 0.2463 0.0000
vt 0.3598 0.1905 0.0000
vt 0.5009 0.1756 0.0000
vt 0.6324 0.1905 0.0000
vt 0.7640 0.2463 0.0000
vt 0.8398 0.3383 0.0000
vt 0.8604 0.4447 0.0000
vt 0.8572 0.5297 0.0000
vt 0.8395 0.6110 0.0000
vt 0.7825 0.6967 0.0000
vt 0.6942 0.7725 0.0000
vt 0.5991 0.8128 0.0000
vt 0.4999 0.8258 0.0000
vt 0.3693 0.8128 0.0000
vt 0.2497 0.7725 0.0000
vt 0.2256 0.6677 0.0000
vt 0.1919 0.5942 0.0000
vt 0.1817 0.5255 0.0000
vt 0.1834 0.4534 0.0000
vt 0.2074 0.3633 0.0000
vt 0.2640 0.2883 0.0000
vt 0.3768 0.2422 0.0000
vt 0.5002 0.2297 0.0000
vt 0.6160 0.2422 0.0000
vt 0.7317 0.2883 0.0000
vt 0.7983 0.3633 0.0000
vt 0.8166 0.4534 0.0000
vt 0.8140 0.5255 0.0000
vt 0.7988 0.5942 0.0000
vt 0.7452 0.6677 0.0000
vt 0.6630 0.7316 0.0000
vt 0.5818 0.7637 0.0000
vt 0.4992 0.7766 0.0000
vt 0.3906 0.7637 0.0000
vt 0.2891 0.7316 0.0000
vt 0.2736 0.6541 0.0000
vt 0.2432 0.5867 0.0000
vt 0.2314 0.5237 0.0000
vt 0.2320 0.4620 0.0000
vt 0.2531 0.3855 0.0000
vt 0.3122 0.3250 0.0000
vt 0.3987 0.2934 0.0000
vt 0.5001 0.2825 0.0000
vt 0.5980 0.2934 0.0000
vt 0.6866 0.3250 0.0000
vt 0.7496 0.3855 0.0000
vt 0.7669 0.4620 0.0000
vt 0.7634 0.5237 0.0000
vt 0.7464 0.5867 0.0000
vt 0.6995 0.6541 0.0000
vt 0.6350 0.7036 0.0000
vt 0.5669 0.7280 0.0000
vt 0.4991 0.7386 0.0000
vt 0.4114 0.7280 0.0000
vt 0.3263 0.7036 0.0000
vt 0.6169 0.6843 0.0000
vt 0.6379 0.6496 0.0000
vt 0.6693 0.5867 0.0000
vt 0.6851 0.5237 0.0000
vt 0.6886 0.4722 0.0000
vt 0.6775 0.4025 0.0000
vt 0.6487 0.3368 0.0000
vt 0.5913 0.3381 0.0000
vt 0.5001 0.3361 0.0000
vt 0.4092 0.3381 0.0000
vt 0.3518 0.3368 0.0000
vt 0.4123 0.4145 0.0000
vt 0.3248 0.4025 0.0000
vt 0.4027 0.4773 0.0000
vt 0.3075 0.4722 0.0000
vt 0.4011 0.5237 0.0000
vt 0.3061 0.5237 0.0000
vt 0.4052 0.5867 0.0000
vt 0.3144 0.5867 0.0000
vt 0.4166 0.6496 0.0000
vt 0.3345 0.6496 0.0000
vt 0.3526 0.6843 0.0000
vt 0.5883 0.4145 0.0000
vt 0.5938 0.4773 0.0000
vt 0.5917 0.5237 0.0000
vt 0.5830 0.5867 0.0000
vt 0.5686 0.6496 0.0000
vt 0.5647 0.7048 0.0000
vt 0.4991 0.7151 0.0000
vt 0.4163 0.7048 0.0000
vt 0.5001 0.4162 0.0000
vt 0.5001 0.4780 0.0000
vt 0.5000 0.5237 0.0000
vt 0.4995 0.5867 0.0000
vt 0.4992 0.6496 0.0000
# 135 texture coords

o pizq
g pizq
usemtl toad_kinopio_boots_a
s 1
f 1/1/1 2/2/2 3/3/3 
f 1/1/1 4/4/4 2/2/2 
f 5/5/5 4/4/4 1/1/1 
f 5/5/5 6/6/6 4/4/4 
f 7/7/7 6/6/6 5/5/5 
f 7/7/7 8/8/8 6/6/6 
f 9/9/9 8/8/8 7/7/7 
f 9/9/9 10/10/10 8/8/8 
f 11/11/11 10/10/10 9/9/9 
f 11/11/11 12/12/12 10/10/10 
f 13/13/13 12/12/12 11/11/11 
f 13/13/13 14/14/14 12/12/12 
f 15/15/15 14/14/14 13/13/13 
f 15/15/15 16/16/16 14/14/14 
f 17/17/17 16/16/16 15/15/15 
f 17/17/17 18/18/18 16/16/16 
f 19/19/19 18/18/18 17/17/17 
f 19/19/19 20/20/20 18/18/18 
f 21/21/21 20/20/20 19/19/19 
f 21/21/21 22/22/22 20/20/20 
f 23/23/23 22/22/22 21/21/21 
f 23/23/23 24/24/24 22/22/22 
f 25/25/25 24/24/24 23/23/23 
f 25/25/25 26/26/26 24/24/24 
f 27/27/27 26/26/26 25/25/25 
f 27/27/27 28/28/28 26/26/26 
f 29/29/29 28/28/28 27/27/27 
f 29/29/29 30/30/30 28/28/28 
f 31/31/31 30/30/30 29/29/29 
f 31/31/31 32/32/32 30/30/30 
f 33/33/33 32/32/32 31/31/31 
f 33/33/33 34/34/34 32/32/32 
f 35/35/35 34/34/34 33/33/33 
f 35/35/35 36/36/36 34/34/34 
f 37/37/37 36/36/36 35/35/35 
f 37/37/37 38/38/38 36/36/36 
f 39/39/39 38/38/38 37/37/37 
f 39/39/39 40/40/40 38/38/38 
f 3/3/3 40/40/40 39/39/39 
f 3/3/3 2/2/2 40/40/40 
f 2/2/2 41/41/41 40/40/40 
f 2/2/2 42/42/42 41/41/41 
f 4/4/4 42/42/42 2/2/2 
f 4/4/4 43/43/43 42/42/42 
f 6/6/6 43/43/43 4/4/4 
f 6/6/6 44/44/44 43/43/43 
f 8/8/8 44/44/44 6/6/6 
f 8/8/8 45/45/45 44/44/44 
f 10/10/10 45/45/45 8/8/8 
f 10/10/10 46/46/46 45/45/45 
f 12/12/12 46/46/46 10/10/10 
f 12/12/12 47/47/47 46/46/46 
f 14/14/14 47/47/47 12/12/12 
f 14/14/14 48/48/48 47/47/47 
f 16/16/16 48/48/48 14/14/14 
f 16/16/16 49/49/49 48/48/48 
f 18/18/18 49/49/49 16/16/16 
f 18/18/18 50/50/50 49/49/49 
f 20/20/20 50/50/50 18/18/18 
f 20/20/20 51/51/51 50/50/50 
f 22/22/22 51/51/51 20/20/20 
f 22/22/22 52/52/52 51/51/51 
f 24/24/24 52/52/52 22/22/22 
f 24/24/24 53/53/53 52/52/52 
f 26/26/26 53/53/53 24/24/24 
f 26/26/26 54/54/54 53/53/53 
f 28/28/28 54/54/54 26/26/26 
f 28/28/28 55/55/55 54/54/54 
f 30/30/30 55/55/55 28/28/28 
f 30/30/30 56/56/56 55/55/55 
f 32/32/32 56/56/56 30/30/30 
f 32/32/32 57/57/57 56/56/56 
f 34/34/34 57/57/57 32/32/32 
f 34/34/34 58/58/58 57/57/57 
f 36/36/36 58/58/58 34/34/34 
f 36/36/36 59/59/59 58/58/58 
f 38/38/38 59/59/59 36/36/36 
f 38/38/38 60/60/60 59/59/59 
f 40/40/40 60/60/60 38/38/38 
f 40/40/40 41/41/41 60/60/60 
f 41/41/41 61/61/61 60/60/60 
f 41/41/41 62/62/62 61/61/61 
f 42/42/42 62/62/62 41/41/41 
f 42/42/42 63/63/63 62/62/62 
f 43/43/43 63/63/63 42/42/42 
f 43/43/43 64/64/64 63/63/63 
f 44/44/44 64/64/64 43/43/43 
f 44/44/44 65/65/65 64/64/64 
f 45/45/45 65/65/65 44/44/44 
f 45/45/45 66/66/66 65/65/65 
f 46/46/46 66/66/66 45/45/45 
f 46/46/46 67/67/67 66/66/66 
f 47/47/47 67/67/67 46/46/46 
f 47/47/47 68/68/68 67/67/67 
f 48/48/48 68/68/68 47/47/47 
f 48/48/48 69/69/69 68/68/68 
f 49/49/49 69/69/69 48/48/48 
f 49/49/49 70/70/70 69/69/69 
f 50/50/50 70/70/70 49/49/49 
f 50/50/50 71/71/71 70/70/70 
f 51/51/51 71/71/71 50/50/50 
f 51/51/51 72/72/72 71/71/71 
f 52/52/52 72/72/72 51/51/51 
f 52/52/52 73/73/73 72/72/72 
f 53/53/53 73/73/73 52/52/52 
f 53/53/53 74/74/74 73/73/73 
f 54/54/54 74/74/74 53/53/53 
f 54/54/54 75/75/75 74/74/74 
f 55/55/55 75/75/75 54/54/54 
f 55/55/55 76/76/76 75/75/75 
f 56/56/56 76/76/76 55/55/55 
f 56/56/56 77/77/77 76/76/76 
f 57/57/57 77/77/77 56/56/56 
f 57/57/57 78/78/78 77/77/77 
f 58/58/58 78/78/78 57/57/57 
f 58/58/58 79/79/79 78/78/78 
f 59/59/59 79/79/79 58/58/58 
f 59/59/59 80/80/80 79/79/79 
f 60/60/60 80/80/80 59/59/59 
f 60/60/60 61/61/61 80/80/80 
f 61/61/61 81/81/81 80/80/80 
f 61/61/61 82/82/82 81/81/81 
f 62/62/62 82/82/82 61/61/61 
f 62/62/62 83/83/83 82/82/82 
f 63/63/63 83/83/83 62/62/62 
f 63/63/63 84/84/84 83/83/83 
f 64/64/64 84/84/84 63/63/63 
f 64/64/64 85/85/85 84/84/84 
f 65/65/65 85/85/85 64/64/64 
f 65/65/65 86/86/86 85/85/85 
f 66/66/66 86/86/86 65/65/65 
f 66/66/66 87/87/87 86/86/86 
f 67/67/67 87/87/87 66/66/66 
f 67/67/67 88/88/88 87/87/87 
f 68/68/68 88/88/88 67/67/67 
f 68/68/68 89/89/89 88/88/88 
f 69/69/69 89/89/89 68/68/68 
f 69/69/69 90/90/90 89/89/89 
f 70/70/70 90/90/90 69/69/69 
f 70/70/70 91/91/91 90/90/90 
f 71/71/71 91/91/91 70/70/70 
f 71/71/71 92/92/92 91/91/91 
f 72/72/72 92/92/92 71/71/71 
f 72/72/72 93/93/93 92/92/92 
f 73/73/73 93/93/93 72/72/72 
f 73/73/73 94/94/94 93/93/93 
f 74/74/74 94/94/94 73/73/73 
f 74/74/74 95/95/95 94/94/94 
f 75/75/75 95/95/95 74/74/74 
f 75/75/75 96/96/96 95/95/95 
f 76/76/76 96/96/96 75/75/75 
f 76/76/76 97/97/97 96/96/96 
f 77/77/77 97/97/97 76/76/76 
f 77/77/77 98/98/98 97/97/97 
f 78/78/78 98/98/98 77/77/77 
f 78/78/78 99/99/99 98/98/98 
f 79/79/79 99/99/99 78/78/78 
f 79/79/79 100/100/100 99/99/99 
f 80/80/80 100/100/100 79/79/79 
f 80/80/80 81/81/81 100/100/100 
f 101/101/101 96/96/96 97/97/97 
f 101/101/101 95/95/95 96/96/96 
f 102/102/102 95/95/95 101/101/101 
f 102/102/102 94/94/94 95/95/95 
f 103/103/103 94/94/94 102/102/102 
f 103/103/103 93/93/93 94/94/94 
f 104/104/104 93/93/93 103/103/103 
f 104/104/104 92/92/92 93/93/93 
f 105/105/105 92/92/92 104/104/104 
f 105/105/105 91/91/91 92/92/92 
f 106/106/106 91/91/91 105/105/105 
f 106/106/106 90/90/90 91/91/91 
f 107/107/107 90/90/90 106/106/106 
f 107/107/107 89/89/89 90/90/90 
f 108/108/108 89/89/89 107/107/107 
f 108/108/108 88/88/88 89/89/89 
f 109/109/109 88/88/88 108/108/108 
f 109/109/109 87/87/87 88/88/88 
f 110/110/110 87/87/87 109/109/109 
f 110/110/110 111/111/111 87/87/87 
f 112/112/112 111/111/111 110/110/110 
f 112/112/112 113/113/113 111/111/111 
f 114/114/114 113/113/113 112/112/112 
f 114/114/114 115/115/115 113/113/113 
f 116/116/116 115/115/115 114/114/114 
f 116/116/116 117/117/117 115/115/115 
f 118/118/118 117/117/117 116/116/116 
f 118/118/118 119/119/119 117/117/117 
f 120/120/120 119/119/119 118/118/118 
f 120/120/120 121/121/121 119/119/119 
f 122/122/122 121/121/121 120/120/120 
f 106/106/106 108/108/108 107/107/107 
f 106/106/106 123/123/123 108/108/108 
f 105/105/105 123/123/123 106/106/106 
f 105/105/105 124/124/124 123/123/123 
f 104/104/104 124/124/124 105/105/105 
f 104/104/104 125/125/125 124/124/124 
f 103/103/103 125/125/125 104/104/104 
f 103/103/103 126/126/126 125/125/125 
f 102/102/102 126/126/126 103/103/103 
f 102/102/102 127/127/127 126/126/126 
f 101/101/101 127/127/127 102/102/102 
f 101/101/101 128/128/128 127/127/127 
f 97/97/97 128/128/128 101/101/101 
f 97/97/97 129/129/129 128/128/128 
f 98/98/98 129/129/129 97/97/97 
f 98/98/98 130/130/130 129/129/129 
f 99/99/99 130/130/130 98/98/98 
f 99/99/99 122/122/122 130/130/130 
f 100/100/100 122/122/122 99/99/99 
f 100/100/100 121/121/121 122/122/122 
f 81/81/81 121/121/121 100/100/100 
f 81/81/81 119/119/119 121/121/121 
f 82/82/82 119/119/119 81/81/81 
f 82/82/82 117/117/117 119/119/119 
f 83/83/83 117/117/117 82/82/82 
f 83/83/83 115/115/115 117/117/117 
f 84/84/84 115/115/115 83/83/83 
f 84/84/84 113/113/113 115/115/115 
f 85/85/85 113/113/113 84/84/84 
f 85/85/85 111/111/111 113/113/113 
f 86/86/86 111/111/111 85/85/85 
f 86/86/86 87/87/87 111/111/111 
f 123/123/123 109/109/109 108/108/108 
f 123/123/123 131/131/131 109/109/109 
f 124/124/124 131/131/131 123/123/123 
f 124/124/124 132/132/132 131/131/131 
f 125/125/125 132/132/132 124/124/124 
f 125/125/125 133/133/133 132/132/132 
f 126/126/126 133/133/133 125/125/125 
f 126/126/126 134/134/134 133/133/133 
f 127/127/127 134/134/134 126/126/126 
f 127/127/127 135/135/135 134/134/134 
f 131/131/131 110/110/110 109/109/109 
f 131/131/131 112/112/112 110/110/110 
f 132/132/132 112/112/112 131/131/131 
f 132/132/132 114/114/114 112/112/112 
f 133/133/133 114/114/114 132/132/132 
f 133/133/133 116/116/116 114/114/114 
f 134/134/134 116/116/116 133/133/133 
f 134/134/134 118/118/118 116/116/116 
f 135/135/135 118/118/118 134/134/134 
f 135/135/135 120/120/120 118/118/118 
f 120/120/120 130/130/130 122/122/122 
f 120/120/120 129/129/129 130/130/130 
f 135/135/135 129/129/129 120/120/120 
f 135/135/135 128/128/128 129/129/129 
f 127/127/127 128/128/128 135/135/135 
# 0 polygons - 248 triangles

#
# object sueizq
#

v  0.9423 -1.1947 -0.0479
v  0.4612 -1.1947 -0.2756
v  0.7575 -1.1947 -0.3868
v  0.5963 -1.1947 0.0819
v  1.1097 -1.1947 0.3115
v  0.7365 -1.1947 0.4515
v  1.2583 -1.1947 0.6810
v  0.8769 -1.1947 0.8242
v  1.4135 -1.1947 1.1531
v  1.0514 -1.1947 1.2890
v  1.5019 -1.1604 1.6346
v  1.2364 -1.1604 1.7819
v  1.7242 -1.1604 1.3722
v  1.7756 -1.1604 1.0172
v  1.6430 -1.1604 0.5367
v  1.4922 -1.1604 0.1679
v  1.3065 -1.1604 -0.1846
v  0.1063 -1.1947 -0.1424
v  0.2030 -1.1947 0.2295
v  0.3337 -1.1947 0.6027
v  0.4858 -1.1947 0.9710
v  0.7009 -1.1947 1.4206
v  0.1022 -1.1604 1.1149
v  0.3451 -1.1604 1.5541
v  -0.0486 -1.1604 0.7462
v  -0.1683 -1.1604 0.3689
v  -0.2372 -1.1604 -0.0135
v  0.5528 -1.1604 -0.6905
v  0.7987 -1.1604 -0.6915
v  0.3241 -1.1604 -0.6407
v  0.0609 -1.1604 -0.5059
v  -0.1803 -1.1604 -0.3241
v  0.5886 -1.1604 1.7984
v  0.9260 -1.1604 1.8508
v  1.0566 -1.1604 -0.4991
# 35 vertices

vn 0.0388 -0.9990 -0.0199
vn -0.0175 -0.9990 -0.0418
vn 0.0271 -0.9970 -0.0725
vn 0.0000 -1.0000 0.0000
vn 0.0386 -0.9991 -0.0164
vn -0.0000 -1.0000 0.0000
vn 0.0404 -0.9991 -0.0135
vn 0.0464 -0.9987 0.0187
vn 0.0133 -0.9994 0.0309
vn 0.0420 -0.9973 0.0609
vn 0.0235 -0.9977 0.0633
vn 0.0844 -0.9958 0.0364
vn 0.0882 -0.9960 -0.0118
vn 0.0785 -0.9965 -0.0284
vn 0.0774 -0.9963 -0.0362
vn 0.0815 -0.9954 -0.0512
vn -0.0494 -0.9984 -0.0287
vn -0.0431 -0.9990 0.0113
vn -0.0399 -0.9991 0.0143
vn -0.0385 -0.9991 0.0167
vn -0.0286 -0.9982 0.0528
vn -0.0776 -0.9963 0.0373
vn -0.0748 -0.9956 0.0569
vn -0.0783 -0.9965 0.0297
vn -0.0826 -0.9963 0.0232
vn -0.0946 -0.9955 0.0065
vn -0.0109 -0.9944 -0.1051
vn 0.0377 -0.9936 -0.1069
vn -0.0308 -0.9958 -0.0863
vn -0.0462 -0.9953 -0.0848
vn -0.0858 -0.9949 -0.0528
vn -0.0417 -0.9961 0.0782
vn 0.0012 -0.9969 0.0790
vn 0.0819 -0.9929 -0.0857
# 34 vertex normals

vt 0.6805 0.6753 0.0000
vt 0.5000 0.7983 0.0000
vt 0.6650 0.7983 0.0000
vt 0.5000 0.6753 0.0000
vt 0.6805 0.5483 0.0000
vt 0.5000 0.5483 0.0000
vt 0.6771 0.4204 0.0000
vt 0.5000 0.4204 0.0000
vt 0.6622 0.2609 0.0000
vt 0.5000 0.2609 0.0000
vt 0.6259 0.0869 0.0000
vt 0.5000 0.0708 0.0000
vt 0.7518 0.1475 0.0000
vt 0.8244 0.2609 0.0000
vt 0.8541 0.4204 0.0000
vt 0.8610 0.5483 0.0000
vt 0.8610 0.6753 0.0000
vt 0.3350 0.7983 0.0000
vt 0.3195 0.6753 0.0000
vt 0.3195 0.5483 0.0000
vt 0.3229 0.4204 0.0000
vt 0.3378 0.2609 0.0000
vt 0.1459 0.4204 0.0000
vt 0.1756 0.2609 0.0000
vt 0.1390 0.5483 0.0000
vt 0.1390 0.6753 0.0000
vt 0.1701 0.7983 0.0000
vt 0.6242 0.9524 0.0000
vt 0.7484 0.9155 0.0000
vt 0.5000 0.9670 0.0000
vt 0.3758 0.9524 0.0000
vt 0.2516 0.9155 0.0000
vt 0.2482 0.1475 0.0000
vt 0.3741 0.0869 0.0000
vt 0.8299 0.7983 0.0000
# 35 texture coords

o sueizq
g sueizq
usemtl toad_kinopio_boots_b
s 1
f 136/136/136 137/137/137 138/138/138 
f 136/136/136 139/139/139 137/137/137 
f 140/140/140 139/139/139 136/136/136 
f 140/140/140 141/141/141 139/139/139 
f 142/142/142 141/141/141 140/140/140 
f 142/142/142 143/143/141 141/141/141 
f 144/144/143 143/143/141 142/142/142 
f 144/144/143 145/145/144 143/143/141 
f 146/146/145 145/145/144 144/144/143 
f 146/146/145 147/147/146 145/145/144 
f 144/144/143 148/148/147 146/146/145 
f 144/144/143 149/149/148 148/148/147 
f 142/142/142 149/149/148 144/144/143 
f 142/142/142 150/150/149 149/149/148 
f 140/140/140 150/150/149 142/142/142 
f 140/140/140 151/151/150 150/150/149 
f 136/136/136 151/151/150 140/140/140 
f 136/136/136 152/152/151 151/151/150 
f 138/138/138 152/152/151 136/136/136 
f 139/139/139 153/153/152 137/137/137 
f 139/139/139 154/154/153 153/153/152 
f 141/141/141 154/154/153 139/139/139 
f 141/141/141 155/155/154 154/154/153 
f 143/143/141 155/155/154 141/141/141 
f 143/143/141 156/156/155 155/155/154 
f 145/145/144 156/156/155 143/143/141 
f 145/145/144 157/157/156 156/156/155 
f 147/147/146 157/157/156 145/145/144 
f 158/158/157 157/157/156 159/159/158 
f 158/158/157 156/156/155 157/157/156 
f 160/160/159 156/156/155 158/158/157 
f 160/160/159 155/155/154 156/156/155 
f 161/161/160 155/155/154 160/160/159 
f 161/161/160 154/154/153 155/155/154 
f 162/162/161 154/154/153 161/161/160 
f 162/162/161 153/153/152 154/154/153 
f 138/138/138 163/163/162 164/164/163 
f 138/138/138 165/165/164 163/163/162 
f 137/137/137 165/165/164 138/138/138 
f 137/137/137 166/166/165 165/165/164 
f 153/153/152 166/166/165 137/137/137 
f 153/153/152 167/167/166 166/166/165 
f 162/162/161 167/167/166 153/153/152 
f 157/157/156 168/168/167 159/159/158 
f 157/157/156 169/169/168 168/168/167 
f 147/147/146 169/169/168 157/157/156 
f 170/170/169 138/138/138 164/164/163 
f 170/170/169 152/152/151 138/138/138 
# 0 polygons - 48 triangles

